<svg xmlns="http://www.w3.org/2000/svg" viewBox="0 0 136.252 88.77600000000001">
  <style>
    .tq { fill: #f0ede6; }
    .dot { fill: #f0a500; }
    @media (prefers-color-scheme: light) {
      .tq { fill: #332f28; }
      .dot { fill: #d68d00; }
    }
  </style>
  <path class="tq" d="M14.80 20.02L14.80 20.02L38.92 20.02Q40.57 20.02 41.74 19.73Q42.91 19.44 43.85 19.17Q44.78 18.90 45.72 18.90L45.72 18.90Q47.48 18.90 48.35 19.75Q49.21 20.59 49.75 22.61L49.75 22.61L52.06 34.60Q52.34 36.04 51.82 36.94Q51.30 37.84 50.04 38.05L50.04 38.05Q48.89 38.30 48.01 37.91Q47.12 37.51 46.51 36.29L46.51 36.29Q44.39 32.04 42.88 29.70Q41.36 27.36 40.03 26.41Q38.70 25.45 37.04 25.45L37.04 25.45L35.21 25.45L35.21 62.42Q35.21 63.32 35.68 63.88Q36.14 64.44 37.04 64.80L37.04 64.80L38.41 65.30Q40.28 66.02 40.28 67.97L40.28 67.97Q40.28 70.42 37.19 70.42L37.19 70.42L16.52 70.42Q14.94 70.42 14.18 69.75Q13.43 69.08 13.43 67.97L13.43 67.97Q13.43 66.02 15.30 65.30L15.30 65.30L16.67 64.80Q17.60 64.44 18.05 63.88Q18.50 63.32 18.50 62.42L18.50 62.42L18.50 25.45L16.67 25.45Q15.05 25.45 13.70 26.41Q12.35 27.36 10.84 29.70Q9.32 32.04 7.20 36.29L7.20 36.29Q6.59 37.51 5.71 37.91Q4.82 38.30 3.67 38.05L3.67 38.05Q2.45 37.84 1.93 36.94Q1.40 36.04 1.66 34.60L1.66 34.60L3.96 22.61Q4.50 20.59 5.36 19.75Q6.23 18.90 7.99 18.90L7.99 18.90Q8.93 18.90 9.86 19.17Q10.80 19.44 11.97 19.73Q13.14 20.02 14.80 20.02ZM82.40 18.58L82.40 18.58Q88.67 18.58 93.65 20.50Q98.64 22.43 102.15 25.99Q105.66 29.56 107.51 34.51Q109.37 39.46 109.37 45.54L109.37 45.54Q109.37 51.05 107.53 55.84Q105.70 60.62 102.24 64.22Q98.78 67.82 93.87 69.84Q88.96 71.86 82.80 71.86L82.80 71.86Q76.54 71.86 71.55 69.93Q66.56 68.00 63.05 64.44Q59.54 60.88 57.69 55.93Q55.84 50.98 55.84 44.89L55.84 44.89Q55.84 39.38 57.67 34.60Q59.51 29.81 62.96 26.21Q66.42 22.61 71.33 20.59Q76.25 18.58 82.40 18.58ZM92.27 55.40L92.27 55.40Q92.27 50.58 91.49 45.95Q90.72 41.33 89.39 37.30Q88.06 33.26 86.36 30.20Q84.67 27.14 82.82 25.40Q80.96 23.65 79.13 23.65L79.13 23.65Q77.18 23.65 75.87 24.95Q74.56 26.24 73.89 28.76Q73.22 31.28 73.22 35.03L73.22 35.03Q73.22 39.82 74.00 44.44Q74.77 49.07 76.10 53.12Q77.44 57.17 79.13 60.23Q80.82 63.29 82.67 65.03Q84.53 66.78 86.36 66.78L86.36 66.78Q88.34 66.78 89.64 65.48Q90.94 64.19 91.60 61.65Q92.27 59.11 92.27 55.40ZM83.09 58.28L83.09 58.28Q82.73 56.92 83.00 55.85Q83.27 54.79 84.53 54.43L84.53 54.43Q85.90 54.04 86.71 54.76Q87.52 55.48 87.91 56.77L87.91 56.77Q89.28 61.09 90.83 63.90Q92.38 66.71 94.19 68.31Q96.01 69.91 98.23 70.58Q100.44 71.24 103.14 71.24L103.14 71.24Q105.19 71.24 106.22 70.79Q107.24 70.34 107.93 69.89Q108.61 69.44 109.55 69.44L109.55 69.44Q110.27 69.44 110.61 69.84Q110.95 70.24 110.95 70.99L110.95 70.99Q110.95 71.53 110.77 72.16Q110.59 72.79 110.23 73.62L110.23 73.62L108.47 77.94Q107.89 79.34 106.65 79.99Q105.41 80.64 102.96 80.64L102.96 80.64Q99.79 80.64 96.93 79.40Q94.07 78.16 91.53 75.47Q88.99 72.79 86.87 68.54Q84.74 64.30 83.09 58.28Z"/>
  <path class="dot" d="M124.41 71.50L124.41 71.50Q122.03 71.50 120.09 70.29Q118.14 69.08 117.01 67.07Q115.88 65.05 115.88 62.71L115.88 62.71Q115.88 60.30 117.01 58.34Q118.14 56.38 120.09 55.19Q122.03 54.00 124.41 54.00L124.41 54.00Q126.86 54.00 128.80 55.19Q130.74 56.38 131.88 58.34Q133.01 60.30 133.01 62.71L133.01 62.71Q133.01 65.05 131.88 67.07Q130.74 69.08 128.80 70.29Q126.86 71.50 124.41 71.50Z"/>
</svg>